<svg id="Layer_1" data-name="Layer 1" xmlns="http://www.w3.org/2000/svg" xmlns:xlink="http://www.w3.org/1999/xlink" viewBox="0 0 903 936.83"><defs><style>.cls-1{font-size:48px;}.cls-1,.cls-20{font-family:Montserrat-ExtraBold, Montserrat;font-weight:800;}.cls-2{letter-spacing:-0.01em;}.cls-3{letter-spacing:-0.01em;}.cls-4{letter-spacing:-0.01em;}.cls-5{letter-spacing:0em;}.cls-6{letter-spacing:-0.03em;}.cls-22,.cls-24,.cls-7{font-size:24px;font-family:Montserrat-Medium, Montserrat;font-weight:500;}.cls-27,.cls-7{letter-spacing:0em;}.cls-8{letter-spacing:0.01em;}.cls-9{letter-spacing:0.01em;}.cls-10{letter-spacing:0.02em;}.cls-11{letter-spacing:0.01em;}.cls-12{letter-spacing:0em;}.cls-13{letter-spacing:0.01em;}.cls-14{letter-spacing:0.01em;}.cls-15{letter-spacing:0.01em;}.cls-16,.cls-24{letter-spacing:0.01em;}.cls-17{letter-spacing:0em;}.cls-18{letter-spacing:-0.01em;}.cls-19{letter-spacing:0.01em;}.cls-20{font-size:36px;letter-spacing:-0.02em;}.cls-21{letter-spacing:0.01em;}.cls-23{letter-spacing:0em;}.cls-25{letter-spacing:0.01em;}.cls-26{letter-spacing:0.01em;}.cls-28{letter-spacing:0.02em;}.cls-29{letter-spacing:-0.01em;}</style></defs><text class="cls-1" transform="translate(81.27 40.8)">A<tspan class="cls-2" x="37.73" y="0">L</tspan><tspan x="66.67" y="0">UR </tspan><tspan class="cls-3" x="153.89" y="0">P</tspan><tspan x="188.78" y="0">EN</tspan><tspan class="cls-4" x="259.73" y="0">D</tspan><tspan x="298.89" y="0">A</tspan><tspan class="cls-5" x="336.62" y="0">F</tspan><tspan class="cls-6" x="367.68" y="0">T</tspan><tspan x="396.48" y="0">ARAN</tspan></text><text class="cls-7" transform="translate(334.42 246.49)">P<tspan class="cls-8" x="17.33" y="0">e</tspan><tspan class="cls-9" x="32.3" y="0">n</tspan><tspan class="cls-8" x="49.01" y="0">daftar </tspan><tspan class="cls-9" x="130.8" y="0">m</tspan><tspan class="cls-8" x="156.53" y="0">e</tspan><tspan class="cls-10" x="171.5" y="0">n</tspan><tspan class="cls-11" x="188.21" y="0">gisi </tspan><tspan class="cls-12" x="238.08" y="0">f</tspan><tspan class="cls-11" x="246.64" y="0">o</tspan><tspan class="cls-13" x="262.17" y="0">r</tspan><tspan class="cls-11" x="272.13" y="0">m data di</tspan><tspan class="cls-14" x="391.07" y="0">r</tspan><tspan class="cls-15" x="401.03" y="0">i dan </tspan><tspan class="cls-11"><tspan x="0" y="28.8">esai pe</tspan><tspan class="cls-9" x="87.29" y="28.8">n</tspan><tspan class="cls-8" x="103.99" y="28.8">dafta</tspan><tspan class="cls-12" x="168.91" y="28.8">r</tspan><tspan class="cls-8" x="178.85" y="28.8">an</tspan><tspan x="0" y="57.6">di laman Data</tspan><tspan class="cls-16" x="175.29" y="57.6">b</tspan><tspan class="cls-8" x="191.83" y="57.6">ase </tspan><tspan class="cls-17" x="240.5" y="57.6">P</tspan><tspan x="257.88" y="57.6">PSK </tspan><tspan class="cls-18" x="314.97" y="57.6">k</tspan><tspan x="329.52" y="57.6">emudian</tspan></tspan><tspan x="0" y="86.4">P</tspan><tspan class="cls-8" x="17.33" y="86.4">e</tspan><tspan class="cls-9" x="32.3" y="86.4">n</tspan><tspan class="cls-8" x="49.01" y="86.4">daftar Mensubmit </tspan><tspan class="cls-12" x="280.72" y="86.4">f</tspan><tspan class="cls-19" x="289.29" y="86.4">o</tspan><tspan class="cls-13" x="304.82" y="86.4">r</tspan><tspan class="cls-11" x="314.78" y="86.4">m</tspan></text><image width="512" height="512" transform="translate(0 144.83) scale(0.46 0.46)" xlink:href="Icon%20packs/1283466-education/1283466-education/png/027-test.png"/><text class="cls-20" transform="translate(334.48 202.35)">T<tspan class="cls-21" x="22.03" y="0">AHAP 1</tspan></text><text class="cls-20" transform="translate(23.09 501.44)">T<tspan class="cls-21" x="22.03" y="0">AHAP 2</tspan></text><text class="cls-22" transform="translate(23.45 550)"><tspan class="cls-16">A</tspan><tspan class="cls-11" x="17.74" y="0">dmin (dan tim) </tspan><tspan class="cls-9" x="211.46" y="0">m</tspan><tspan class="cls-11" x="237.19" y="0">e</tspan><tspan x="252.17" y="0">r</tspan><tspan class="cls-17" x="262" y="0">e</tspan><tspan class="cls-11" x="276.74" y="0">vi</tspan><tspan class="cls-23" x="297.43" y="0">e</tspan><tspan class="cls-11" x="312.17" y="0">w </tspan><tspan class="cls-11"><tspan x="0" y="28.8">esai pe</tspan><tspan class="cls-9" x="87.29" y="28.8">n</tspan><tspan class="cls-8" x="103.99" y="28.8">daftar</tspan></tspan></text><image width="512" height="512" transform="translate(529 441.83) scale(0.35)" xlink:href="Icon%20packs/1283466-education/1283466-education/png/003-copyright.png"/><image width="512" height="512" transform="translate(16 735.83) scale(0.39)" xlink:href="Icon%20packs/1283466-education/1283466-education/png/011-guarantee.png"/><text class="cls-20" transform="translate(335.11 773.2)">T<tspan class="cls-21" x="22.03" y="0">AHAP 3</tspan></text><text class="cls-24" transform="translate(335.48 821.75)">A<tspan class="cls-11" x="17.74" y="0">dmin </tspan><tspan class="cls-9" x="90.41" y="0">m</tspan><tspan class="cls-11" x="116.13" y="0">emutus</tspan><tspan class="cls-17" x="212.37" y="0">k</tspan><tspan class="cls-8" x="227.21" y="0">an untuk </tspan><tspan class="cls-9" x="346.96" y="0">m</tspan><tspan class="cls-19" x="372.69" y="0">e</tspan><tspan class="cls-25" x="387.67" y="0">n</tspan><tspan class="cls-19" x="404.37" y="0">e</tspan><tspan class="cls-13" x="419.35" y="0">r</tspan><tspan class="cls-11" x="429.31" y="0">ima atau </tspan><tspan class="cls-9"><tspan x="0" y="28.8">m</tspan><tspan class="cls-11" x="25.73" y="28.8">e</tspan><tspan class="cls-26" x="40.7" y="28.8">n</tspan><tspan class="cls-11" x="57.41" y="28.8">olak pe</tspan><tspan x="148.01" y="28.8">n</tspan><tspan class="cls-11" x="164.71" y="28.8">daftar be</tspan><tspan class="cls-27" x="278.13" y="28.8">r</tspan><tspan class="cls-8" x="287.97" y="28.8">dasa</tspan><tspan class="cls-5" x="346.22" y="28.8">r</tspan><tspan class="cls-23" x="356.18" y="28.8">k</tspan><tspan class="cls-11" x="371.01" y="28.8">an esai si</tspan><tspan x="483.98" y="28.8">n</tspan><tspan class="cls-11" x="500.68" y="28.8">g</tspan><tspan class="cls-17" x="517.53" y="28.8">k</tspan><tspan class="cls-11" x="532.36" y="28.8">a</tspan><tspan class="cls-28" x="547" y="28.8">t</tspan><tspan class="cls-8" x="557.47" y="28.8">.</tspan></tspan><tspan class="cls-29"><tspan x="0" y="57.6">K</tspan><tspan class="cls-11" x="16.99" y="57.6">eputusan </tspan><tspan class="cls-9" x="142.25" y="57.6">a</tspan><tspan class="cls-11" x="156.96" y="57.6">dmin disam</tspan><tspan class="cls-16" x="305.88" y="57.6">p</tspan><tspan class="cls-11" x="322.41" y="57.6">ai</tspan><tspan class="cls-23" x="344.04" y="57.6">k</tspan><tspan class="cls-8" x="358.87" y="57.6">an </tspan><tspan class="cls-18" x="396.88" y="57.6">k</tspan><tspan class="cls-8" x="411.43" y="57.6">e email </tspan></tspan><tspan class="cls-11"><tspan x="0" y="86.4">pe</tspan><tspan class="cls-26" x="31.63" y="86.4">n</tspan><tspan x="48.33" y="86.4">daftar</tspan></tspan></text></svg>